HIERARCHY
ROOT Hips
{
	OFFSET 0.000000 0.000000 0.000000
	CHANNELS 6 Xposition Yposition Zposition Zrotation Yrotation Xrotation 
	JOINT LHipJoint
	{
		OFFSET 0.000000 0.000000 0.000000
		CHANNELS 3 Zrotation Yrotation Xrotation
		JOINT LeftUpLeg
		{
			OFFSET 1.363060 -1.794630 0.839290
			CHANNELS 3 Zrotation Yrotation Xrotation
			JOINT LeftLeg
			{
				OFFSET 2.448110 -6.726130 0.000000
				CHANNELS 3 Zrotation Yrotation Xrotation
				JOINT LeftFoot
				{
					OFFSET 2.562200 -7.039590 0.000000
					CHANNELS 3 Zrotation Yrotation Xrotation
					JOINT LeftToeBase
					{
						OFFSET 0.157640 -0.433110 2.322550
						CHANNELS 3 Zrotation Yrotation Xrotation
						End Site
						{
							OFFSET 0.000000 0.000000 0.000000
						}
					}
				}
			}
		}
	}
	JOINT RHipJoint
	{
		OFFSET 0.000000 0.000000 0.000000
		CHANNELS 3 Zrotation Yrotation Xrotation
		JOINT RightUpLeg
		{
			OFFSET -1.305520 -1.794630 0.839290
			CHANNELS 3 Zrotation Yrotation Xrotation
			JOINT RightLeg
			{
				OFFSET -2.542530 -6.985550 0.000000
				CHANNELS 3 Zrotation Yrotation Xrotation
				JOINT RightFoot
				{
					OFFSET -2.568260 -7.056230 0.000000
					CHANNELS 3 Zrotation Yrotation Xrotation
					JOINT RightToeBase
					{
						OFFSET -0.164730 -0.452590 2.363150
						CHANNELS 3 Zrotation Yrotation Xrotation
						End Site
						{
							OFFSET 0.000000 0.000000 0.000000
						}
					}
				}
			}
		}
	}
}
MOTION
Frames: 25
Frame Time: 0.008333
2.583397 16.753942 -1.886828 119.053890 -86.011270 -128.897350 -11.199109 1.982503 -0.580829 -0.736201 16.989943 -14.303837 0.648851 1.847472 45.375853 3.780826 28.246382 6.314784 6.737701 -0.000000 -50.479800 10.469522 -2.516353 -1.500635 4.042968 -16.066309 -0.430934 1.458157 -1.874354 29.315948 -1.949095 -7.550804 -16.232085 1.209500 0.000000 -58.343500
2.610563 16.765565 -1.919050 119.127681 -85.905308 -129.132927 -11.225680 1.826967 -0.659796 -0.875052 17.190040 -15.816196 0.742712 1.922730 47.439093 3.871272 28.942857 8.027088 7.721899 0.000000 -48.352900 10.461539 -2.509179 -1.490741 4.106497 -15.883826 -0.093598 1.442588 -1.853353 28.892327 -1.970171 -7.690668 -16.067536 1.195200 0.000000 -58.077300
2.639211 16.776744 -1.950676 118.752958 -85.826234 -128.902320 -11.229115 1.661992 -0.746125 -1.070109 17.385270 -17.412311 0.817821 1.998025 49.497810 3.938774 29.425901 9.492453 8.545000 -0.000000 -45.956000 10.469807 -2.499572 -1.482845 4.165609 -15.711427 0.203117 1.425441 -1.834857 28.500003 -1.995896 -7.856982 -15.912729 1.184200 0.000000 -57.813800
2.669234 16.787364 -1.981784 117.872577 -85.777654 -128.153305 -11.205353 1.491986 -0.843602 -1.330642 17.585693 -19.088664 0.877064 2.076551 51.542986 3.978155 29.655819 10.625031 9.131900 -0.000001 -43.454100 10.499613 -2.487886 -1.478032 4.210772 -15.560067 0.461386 1.406751 -1.819352 28.142982 -2.024938 -8.043235 -15.768785 1.175900 -0.000000 -57.550800
2.700437 16.797460 -2.012382 116.474886 -85.761610 -126.872578 -11.152689 1.320120 -0.952841 -1.664825 17.796385 -20.852346 0.925115 2.160377 53.567908 3.988575 29.627403 11.390594 9.450499 -0.000000 -41.195100 10.553002 -2.474351 -1.474459 4.243916 -15.428267 0.677253 1.386117 -1.806645 27.824661 -2.057804 -8.252149 -15.636476 1.170900 0.000000 -57.281701
2.732789 16.807035 -2.042553 114.529013 -85.781426 -125.032180 -11.069742 1.149474 -1.075730 -2.076504 18.024818 -22.713602 0.966086 2.252726 55.582555 3.968846 29.334074 11.739807 9.470800 0.000001 -39.185600 10.631430 -2.458607 -1.472267 4.268057 -15.320334 0.854097 1.363251 -1.795989 27.542226 -2.094455 -8.483936 -15.514310 1.168801 0.000000 -57.004800
2.766075 16.816212 -2.072264 112.017019 -85.839140 -122.611655 -10.956103 0.982093 -1.210785 -2.569228 18.268405 -24.685836 1.003935 2.355437 57.594775 3.921536 28.803356 11.682390 9.214700 0.000000 -37.562400 10.734268 -2.439798 -1.471009 4.291949 -15.237130 0.992676 1.337781 -1.785966 27.291002 -2.135342 -8.741061 -15.399716 1.169500 0.000000 -56.713600
2.800221 16.825046 -2.101580 108.907697 -85.934755 -119.578998 -10.811301 0.820063 -1.355703 -3.144846 18.520325 -26.781421 1.041480 2.470308 59.615715 3.850180 28.073605 11.242445 8.723000 0.000000 -36.291200 10.860417 -2.416259 -1.471246 4.324306 -15.181821 1.096340 1.309262 -1.774746 27.064082 -2.180519 -9.023912 -15.289549 1.172600 0.000000 -56.404600
2.835109 16.833690 -2.130537 105.161930 -86.064143 -115.893584 -10.634871 0.665433 -1.506273 -3.805924 18.766239 -29.008464 1.081004 2.597991 61.650031 3.761350 27.207696 10.497932 8.072600 0.000000 -35.523900 11.008518 -2.385161 -1.474361 4.371143 -15.158724 1.167995 1.277092 -1.760157 26.854509 -2.229325 -9.328974 -15.180435 1.177101 -0.000000 -56.077900
2.870696 16.842106 -2.159064 100.768450 -86.219828 -111.545508 -10.428725 0.521160 -1.659747 -4.549803 18.998042 -31.372593 1.123960 2.740755 63.708524 3.660296 26.254743 9.499060 7.319800 -0.000000 -35.041100 11.174255 -2.343534 -1.482364 4.439239 -15.171879 1.214249 1.240732 -1.739947 26.654638 -2.280834 -9.651197 -15.068722 1.182000 -0.000001 -55.736700
2.906540 16.850564 -2.187167 95.741672 -86.386908 -106.542156 -10.195155 0.389886 -1.808663 -5.381428 19.196939 -33.878736 1.172751 2.898017 65.785098 3.557894 25.301130 8.380515 6.561300 0.000000 -35.118600 11.352730 -2.288200 -1.494540 4.530542 -15.221424 1.230304 1.199384 -1.711662 26.461879 -2.333753 -9.983221 -14.951735 1.186200 -0.000000 -55.395000
2.943353 16.858591 -2.214882 90.137305 -86.550902 -100.959759 -9.941047 0.275077 -1.959817 -6.285679 19.372062 -36.500369 1.228677 3.074397 67.886764 3.455502 24.360032 7.149854 5.807200 0.000000 -35.170400 11.536817 -2.214990 -1.521994 4.636324 -15.318966 1.250215 1.152807 -1.675048 26.266674 -2.385236 -10.310454 -14.825866 1.187600 -0.000000 -55.052600
2.980303 16.866568 -2.242117 84.139867 -86.688561 -94.966977 -9.673578 0.176666 -2.102096 -7.276418 19.506255 -39.250249 1.295679 3.266501 69.997601 3.366113 23.522620 5.958891 5.141300 0.000000 -35.666200 11.716257 -2.124430 -1.556274 4.755607 -15.451316 1.246683 1.101094 -1.628959 26.078482 -2.434478 -10.626721 -14.693338 1.186099 0.000000 -54.735000
3.019370 16.871030 -2.269234 68.679909 -86.979464 -79.580195 -9.268131 0.255301 -2.079568 -8.260063 18.763301 -42.122131 1.390567 3.524768 72.231944 3.318153 22.957455 4.909913 4.635800 0.000000 -36.235601 12.025862 -1.882068 -1.829325 4.812274 -16.657841 1.440709 1.017079 -1.493335 25.682675 -2.417198 -10.679818 -14.381678 1.139300 -0.000000 -54.786500
3.057086 16.878132 -2.295853 63.057630 -86.922782 -73.964026 -9.033160 0.194198 -2.215671 -9.416248 18.851056 -45.032374 1.486183 3.752257 74.314210 3.260747 22.364948 3.872794 4.145900 -0.000000 -36.850000 12.140365 -1.753130 -1.894986 4.886181 -16.867752 1.437701 0.955881 -1.432327 25.519782 -2.452866 -10.924354 -14.236809 1.128700 0.000000 -54.577200
3.094404 16.884906 -2.321843 58.048281 -86.821585 -68.945646 -8.809491 0.125532 -2.347871 -10.652251 18.906994 -48.034633 1.601473 3.982148 76.378725 3.221627 21.902875 2.943973 3.743701 -0.000000 -37.379300 12.224960 -1.628995 -1.960928 4.961621 -17.078650 1.402557 0.899254 -1.374428 25.384063 -2.485779 -11.150698 -14.097342 1.116499 -0.000000 -54.427500
3.132349 16.890726 -2.347899 53.754480 -86.679436 -64.654357 -8.592124 0.047003 -2.488333 -11.956439 18.941924 -51.079682 1.734228 4.210530 78.402883 3.194907 21.533715 2.105275 3.405200 0.000000 -37.778100 12.289967 -1.509835 -2.039264 5.012708 -17.302098 1.369746 0.847547 -1.324086 25.276270 -2.513862 -11.349718 -13.964072 1.102500 -0.000000 -54.344801
3.169711 16.895856 -2.373672 50.295611 -86.512246 -61.185885 -8.376047 -0.045358 -2.628409 -13.334510 18.943241 -54.191269 1.883189 4.431440 80.375714 3.178490 21.237188 1.349467 3.119000 -0.000000 -37.976300 12.338229 -1.402780 -2.113391 5.056989 -17.500355 1.297506 0.802392 -1.283313 25.216355 -2.540707 -11.536641 -13.848187 1.090200 -0.000001 -54.325100
3.207392 16.899664 -2.399716 47.631045 -86.332362 -58.519391 -8.155312 -0.150729 -2.778461 -14.767683 18.918035 -57.331708 2.043465 4.643787 82.277686 3.163626 20.956433 0.635254 2.856200 -0.000001 -37.896801 12.379232 -1.304321 -2.192805 5.086582 -17.663697 1.218452 0.761782 -1.254894 25.206813 -2.568651 -11.723708 -13.753875 1.081400 0.000000 -54.356800
3.244584 16.902233 -2.425757 45.719724 -86.152879 -56.596562 -7.925434 -0.268589 -2.928312 -16.254289 18.840542 -60.518448 2.212071 4.844438 84.095670 3.147196 20.666325 -0.046019 2.609401 0.000000 -37.601800 12.416198 -1.215594 -2.266220 5.116689 -17.762402 1.102379 0.725156 -1.238762 25.262745 -2.601703 -11.928645 -13.691304 1.079300 -0.000001 -54.416500
3.281247 16.903302 -2.451856 44.453960 -85.980237 -55.311191 -7.683834 -0.396665 -3.075314 -17.778991 18.688796 -63.739039 2.385014 5.032711 85.815864 3.124904 20.337965 -0.714602 2.367100 0.000000 -37.118100 12.453394 -1.132995 -2.335334 5.148957 -17.786269 0.955453 0.690578 -1.234722 25.386770 -2.642543 -12.164312 -13.665003 1.086200 -0.000000 -54.477700
3.317763 16.902496 -2.478086 43.710010 -85.824780 -54.542982 -7.430715 -0.534691 -3.221479 -19.313064 18.452562 -66.977339 2.558451 5.210232 87.431376 3.092914 19.946341 -1.405441 2.115600 0.000000 -36.357300 12.490703 -1.052335 -2.402402 5.202209 -17.701348 0.794624 0.654953 -1.243493 25.582583 -2.698990 -12.468825 -13.682340 1.105800 -0.000000 -54.507500
3.353384 16.899882 -2.504206 43.359512 -85.680630 -54.156607 -7.166857 -0.680191 -3.354448 -20.841093 18.086714 -70.226890 2.730453 5.375363 88.933354 3.054777 19.514351 -2.101363 1.865900 0.000000 -35.549700 12.529700 -0.970990 -2.466896 5.271145 -17.522939 0.611380 0.617711 -1.262449 25.846202 -2.770007 -12.836441 -13.743262 1.138700 -0.000000 -54.481500
3.388120 16.895289 -2.530092 43.262232 -85.546553 -54.015694 -6.894912 -0.832301 -3.471759 -22.331949 17.570430 -73.466034 2.898924 5.529285 90.320003 3.013911 19.064987 -2.813005 1.618800 0.000000 -34.720900 12.569556 -0.885282 -2.532943 5.361214 -17.249699 0.421086 0.577092 -1.290461 26.171006 -2.858347 -13.280912 -13.846979 1.186100 0.000000 -54.375699
3.421615 16.888742 -2.555466 43.288870 -85.421134 -53.990028 -6.618180 -0.990220 -3.568706 -23.754979 16.883627 -76.678001 3.063026 5.673221 91.594334 2.977045 18.640929 -3.545128 1.378000 0.000000 -33.934100 12.608249 -0.793134 -2.602045 5.478982 -16.883764 0.231468 0.532230 -1.325897 26.550211 -2.965840 -13.810626 -13.992949 1.249700 0.000000 -54.164000
